<svg xmlns="http://www.w3.org/2000/svg" viewBox="0 0 48 48">
  <linearGradient id="fb-a" x1="6.228" x2="42.077" y1="2.078" y2="43.813" gradientUnits="userSpaceOnUse">
    <stop offset="0" stop-color="#0d61a9"/>
    <stop offset="1" stop-color="#16528c"/>
  </linearGradient>
  <path fill="url(#fb-a)" d="M42,40c0,1.105-0.895,2-2,2H8c-1.105,0-2-0.895-2-2V8c0-1.105,0.895-2,2-2h32c1.105,0,2,0.895,2,2V40z"/>
  <path fill="#fff" d="M25,38V27h4l1-5h-5v-2c0-2,1.002-3,3-3h2v-5c-1,0-2.5-0.006-4,0c-3.675,0.011-6,2.699-6,7v3h-4v5h4v11H25z"/>
</svg>
